<?xml version="1.0" standalone="no"?>
<!DOCTYPE svg PUBLIC "-//W3C//DTD SVG 20010904//EN"
 "http://www.w3.org/TR/2001/REC-SVG-20010904/DTD/svg10.dtd">
<svg version="1.0" xmlns="http://www.w3.org/2000/svg"
 width="188.000000pt" height="188.000000pt" viewBox="0 0 188.000000 188.000000"
 preserveAspectRatio="xMidYMid meet">
<metadata>
Created by potrace 1.14, written by Peter Selinger 2001-2017
</metadata>
<g transform="translate(0.000000,188.000000) scale(0.100000,-0.100000)"
fill="#000000" stroke="none">
<path d="M0 940 l0 -940 940 0 940 0 0 940 0 940 -940 0 -940 0 0 -940z m790
714 l0 -57 -96 -91 c-53 -50 -100 -92 -105 -94 -5 -2 -9 18 -9 45 0 47 3 50
96 151 53 56 100 102 105 102 5 0 9 -25 9 -56z m437 -176 c128 -128 241 -245
253 -260 17 -22 20 -39 18 -85 l-3 -58 -195 190 c-107 104 -220 214 -252 243
l-56 54 -250 -241 c-137 -132 -253 -241 -256 -241 -3 0 -6 26 -6 58 l0 57 251
258 c138 141 254 257 258 257 4 0 111 -105 238 -232z m272 -573 l0 -40 -126
-68 c-122 -65 -127 -67 -146 -50 -17 16 -40 18 -211 15 l-191 -2 -135 39 c-74
22 -151 44 -170 49 -33 8 -35 11 -38 51 l-3 44 258 259 258 259 252 -258 c245
-250 252 -259 252 -298z"/>
<path d="M880 1085 l0 -65 50 0 50 0 0 65 0 65 -50 0 -50 0 0 -65z"/>
<path d="M1002 1088 l3 -63 48 -3 47 -3 0 65 0 66 -50 0 -51 0 3 -62z"/>
<path d="M880 934 l0 -65 48 3 47 3 3 63 3 62 -51 0 -50 0 0 -66z"/>
<path d="M1002 938 l3 -63 48 -3 47 -3 0 65 0 66 -50 0 -51 0 3 -62z"/>
</g>
</svg>
